<svg xmlns="http://www.w3.org/2000/svg" viewBox="0 0 70 97"><path d="M54.8 0h-.4c-.7.4-1.1.9-1.4 1.6-.6 1.1-1 2.3-1.3 3.4-.2.8-.7 1.2-1.5 1.3-2.3.4-4 1.7-5.2 3.7l-1.8 3.9c-1.4 3.7-2.5 7.5-3.8 11.2-.7 1.9-.8 1.9-2.7 1.9-2.3 0-2.1-.4-2.1 2.1 0 .8.2 1.2 1.1 1.2.3 0 .7-.1.8.2.1.3-.2.5-.4.7a8.4 8.4 0 01-4.3 2.4l-5.7 1.5a29.3 29.3 0 00-12.6 7.6 27 27 0 00-4.7 7.8c-3.8 8.7-5.6 17.8-7 27-.6 4.3-1.1 8.6-1.5 13C.2 92.7 0 94.8 0 97h33.3c.1-.5-.1-.9-.2-1.3-.7-1.8-2.1-2.7-3.8-3.1-.7-.2-.8-.4-.4-.9.7-.9 1.2-2 1.6-3.1 1.6-4.8 2.3-9.8 3.1-14.8.6-3.8 1.5-7.4 3.4-10.8 1.5-2.5 3.3-4.6 5.6-6.4.8-.6.9-.6 1 .4l.2 2.2c.3 4.7.3 9.5-.2 14.2a67.6 67.6 0 002 23.6h13.3c-.3-2.2-2.1-4-4.2-4.4a9.8 9.8 0 00-3.8.2c-.6.1-.8 0-.9-.6-.4-5.3-.1-10.6 1-15.8 1.3-6 2.4-12.1 3.1-18.2.3-2.5 1-4.8 2.3-7l3.4-6.5a6 6 0 00.4-5.2l-.9-2.1-2.9-5.9c-.5-1-.4-1.1.7-1.1 1.6 0 1.6 0 1.7-1.6v-.7c0-.7-.3-1.1-1-1h-1.5c-.7 0-.9-.3-.7-1a6.3 6.3 0 015.1-4.4 21 21 0 016.6.4c.6.1 1 0 1.3-.6l1.3-3c.2-.4.2-.8-.1-1.1-3.2-4.2-6.7-8-11.4-10.4-.5-.3-.8-.6-.9-1.1-.3-1.4-.7-2.8-1.3-4.2-.3-.7-.6-1.3-1.4-1.7z"/></svg>