<svg xmlns="http://www.w3.org/2000/svg" viewBox="0 0 55.5 60"><path d="M52.3 12.2h-7a7.6 7.6 0 00.5-8.1A7.7 7.7 0 0041.2.4c-2-.6-4.1-.4-5.9.6-3.6 2-6.2 6.1-7.6 9-1.4-2.9-4-7.1-7.6-9-3.8-2-8.5-.6-10.5 3.1a7.6 7.6 0 00.5 8.1h-7A3.1 3.1 0 000 15.3v9.4c0 1.7 1.4 3.1 3.1 3.1H4v26.1a6 6 0 006 6h35.5a6 6 0 006-6V27.8h.8c1.7 0 3.1-1.4 3.1-3.1v-9.4c.1-1.7-1.3-3.1-3.1-3.1zM36.5 3a5.3 5.3 0 017.2 2.2 5.3 5.3 0 01-1.8 7H29.4C30.5 9.6 33 5 36.5 3zM11.7 5.2A5.4 5.4 0 0119 3c3.5 1.9 6 6.6 7.1 9.1H13.5a5.2 5.2 0 01-1.8-6.9zm14.8 22.6v13.7H6.4V27.8h20.1zM6.4 53.9v-10h20.2v13.7H10c-2 0-3.6-1.7-3.6-3.7zm39.1 3.7H28.9V43.9h20.2v10c0 2-1.6 3.7-3.6 3.7zm3.6-16.1H28.9V27.8h20.2v13.7zm4-16.8c0 .4-.3.7-.7.7H3.2a.7.7 0 01-.7-.7v-9.4c0-.4.3-.7.7-.7h49.2c.4 0 .7.3.7.7v9.4z"/></svg>
