<?xml version="1.0" encoding="utf-8"?>
<!-- Generator: Adobe Illustrator 23.0.3, SVG Export Plug-In . SVG Version: 6.00 Build 0)  -->
<svg version="1.1" id="Layer_1" xmlns="http://www.w3.org/2000/svg" xmlns:xlink="http://www.w3.org/1999/xlink" x="0px" y="0px"
	 viewBox="0 0 22 12" style="enable-background:new 0 0 22 12;" xml:space="preserve">
<path d="M17.6,12c-0.3,0-0.9-0.1-1.5-0.5c-0.5-0.3-0.9-0.7-1.3-1.2c-0.3-0.3-0.9-0.9-1.1-0.9c-0.2,0.1-0.4,0.7-0.3,1.2
	c0,0.1,0,0.6-0.3,0.9c-0.3,0.3-0.8,0.4-0.9,0.4h-1.4c-0.7,0-3.2-0.2-5.4-2.3C2.5,7.1,0.2,2.2,0.1,2C0,1.6-0.1,1.2,0.2,0.9
	s0.8-0.4,1-0.4h3.1c0.1,0,0.4,0.1,0.7,0.3C5.3,1,5.4,1.3,5.5,1.4c0.7,1.5,1.5,2.8,2.6,4C8.2,5,8.3,4,8.2,3.1c0-0.4-0.1-0.8-0.2-1
	C7.9,2,7.7,1.9,7.5,1.9L6.9,1.4c0-0.5,0.5-0.9,0.9-1.1C8.3,0.1,9.1,0,10.1,0h0.5c0.9,0,1.2,0.1,1.6,0.1c1.2,0.3,1.2,1.3,1.1,2.5v1.6
	c0,0.3,0,0.8,0.1,1c0.2-0.1,0.6-0.5,1.5-1.9c0.6-0.9,1-1.9,1.1-2.1c0.1-0.3,0.4-0.7,1.2-0.7h3.4c0.7,0,1.2,0.2,1.3,0.7
	c0.2,0.5,0.1,1.3-1.7,3.5c-0.3,0.3-0.5,0.6-0.7,0.9c-0.5,0.4-0.9,1-0.9,1.1s0.5,0.5,0.9,0.9c1.1,0.9,1.9,1.7,2.2,2.3
	c0.4,0.6,0.3,1,0.2,1.3c-0.3,0.7-1.2,0.7-1.4,0.8h-2.8C17.7,12,17.6,12,17.6,12z M13.7,8.3c0.7,0,1.2,0.6,1.8,1.2
	c0.4,0.4,0.7,0.8,1.1,1c0.5,0.3,1,0.3,1,0.3h2.9c0.1,0,0.3-0.1,0.4-0.1c0,0,0-0.1-0.1-0.1c-0.3-0.5-1-1.3-2-2.1
	c-0.9-0.7-1.3-1.1-1.4-1.7c0-0.6,0.4-1.1,1.2-2.1c0.2-0.2,0.4-0.5,0.7-0.8c1.1-1.4,1.4-2,1.5-2.3h-3.9c0,0.4-0.5,1.5-1.1,2.4
	c-1.4,2.1-2,2.4-2.5,2.4c-0.1,0-0.3,0-0.4-0.1c-0.7-0.4-0.7-1.4-0.7-2.1V3.9V2.6c0.1-1.3,0-1.3-0.3-1.4c-0.3-0.1-0.5-0.1-1.4-0.1H10
	c-0.5,0-1,0-1.4,0.1l0.2,0.2c0.4,0.5,0.4,1.5,0.4,1.7c0.1,1.3,0,2.9-0.7,3.3c-0.1,0-0.2,0.1-0.4,0.1C7.5,6.5,6.8,5.8,5.6,4
	C5,2.9,4.5,1.8,4.5,1.8s0-0.1-0.1-0.1S4.2,1.6,4.2,1.6H1.3H1.2c0.4,0.9,2.5,5,4.8,7.2c2,1.9,4.3,2,4.7,2h1.4c0,0,0.2,0,0.2-0.1v-0.1
	c0-0.2,0-2,1.2-2.3C13.5,8.3,13.7,8.3,13.7,8.3z"/>
</svg>
