<svg width="174" height="52" fill="none" xmlns="http://www.w3.org/2000/svg"><g clip-path="url(#clip0)"><path d="M51.6 20.9A22.2 22.2 0 0034 7.4a21.9 21.9 0 00-20.3 8.4A22.4 22.4 0 0028 51.4l-1.5-6c1.4 1 2.7 1.7 4.1 2.3l.3 4c1.5 0 3-.1 4.6-.4v-.7c.2-1.6 1-4.5 1-6.4 1-1 1.9-2 2.6-3.3v.4c-.6 3.7-1.6 7.7-2.2 8.8l-.7 1a22 22 0 0017-20.8c.2-3.2-.4-6.5-1.6-9.4zM50.3 24c-.4.4-1.1.7-1.3-.5l-.1-1.9s-1.7-3-2.3-3c-.6 0-5 3-6.2 4.4-1 1-1.2 1-1.2 3 0 1.5.2 7 0 11.4l-7 1.8c-2.2.7-4.4 1.2-6.7 1.5l-.8-5h-.1l-2.3-11.5-4.5-1.6a3.2 3.2 0 00-3.4.6 4.4 4.4 0 00-1.5 3.3l.4 1.3c0 .4-1 .4-1.7.4s-.8-1.3-.2-2.8a19.9 19.9 0 013.3-5.7s.1-.3 1-.2l6.4.4v-2a122 122 0 0117.4-1.2v1.6c2.2-1 4.6-1.6 7-1.7a.8.8 0 01.7.3l2.3 3 1.6 2.5c-.2.6-.4 1.2-.8 1.6z" fill="#FDC305"/><path d="M48.6 18.8l.9 1.2 1.6 2.6c-.2.5-.4 1-.8 1.5-.3.4-1.1.6-1.3-.5l-.1-1.9s-1.7-3-2.3-3c-.6 0-5 3-6.2 4.4-1 1-1.2 1-1.2 3l.1 9.7c1.6.2 3.8.6 4.5 1.7 0 0-.2-6.3 6.8-3 0 0 .2-8.5 9.8-6.3-3.2-4-7.2-7-11.8-9.4zM39.6 16.8c0-4.8-.4-9.6-1.2-14.3 0 0-.2-1.2-.8-.3-.5 1.1-.9 2.3-1 3.5-3.7-.2-7.4-.1-11 .3-.8-2.4-2-3.5-2.6-3.2-.5.3-.6 2.9-.6 2.9L22.1 18a122 122 0 0117.5-1.2z" fill="#F06351"/><path d="M39 41c.2-1 .2-2.2.3-3.6l-7 1.9c-2.3.7-4.5 1.2-6.8 1.5l1 4.4v.3c1.4.8 2.7 1.6 4.1 2.2 2.1-1 4.1-2.2 6-3.6 1-.9 1.8-2 2.5-3.2z" fill="#E55645"/><path d="M27.6 14l1.2.9.5.5c0 .2-.2.3-.5.3l-.9-.2c0-.1.5 0 .8 0h.3a7 7 0 01-1.4-1.4zM34 14.2l-1 1.2s0 .2.3.2a7 7 0 001-.2l-.1-.2-.9.1.8-1.1s0-.1 0 0zM31.3 19.5a2 2 0 001-.9c.2-.5 0-.8-.4-.8-.5-.1-1 0-1.5.3-.4.3-.3.6 0 .8.3.3.6.4 1 .6z" fill="#000"/><path d="M31 20.6c0 .2-.2.4-.4.5-.2.2-.5.3-.8.3-.5 0-1 0-1.4-.3l-.4-.4-.3-.2s.6 3.5 2.2 4.1c1.5.6 1.8-.7 1.9-1 0-1-.2-2-.7-2.8v-.2z" fill="#F06351"/><path d="M29.5 21.6a3 3 0 01-2-1.3.1.1 0 010-.1.1.1 0 01.1 0 2.8 2.8 0 002 1.1 1.8 1.8 0 001.3-.9l.1-.1.1.2s.4.6.9.7c.5 0 1-.4 1.4-1.2h.2a.1.1 0 010 .2c-.6.8-1.1 1.2-1.6 1.2a1.3 1.3 0 01-1-.6 2 2 0 01-1.5.8z" fill="#000"/><path d="M31.2 33.3c1.8 0 3.3-1.5 3.3-3.3 0-1.8-1.5-3.2-3.3-3.2A3.2 3.2 0 0028 30c0 1.8 1.5 3.3 3.2 3.3z" fill="#FDC305"/><path d="M35.5 27.4l-2.7 1.1 1-4.9-6.4 8.5L30 31l-1 4.9 6.5-8.5zm-6.3 3.3l3.5-4.7-.7 3.5 1.8-.7-3.7 4.7.7-3.5-1.6.7zM28 29.4c.5 0 1-.4 1-1 0-.5-.5-1-1-1a1 1 0 00-1 1c0 .6.4 1 1 1zM33.6 33c.3 0 .6-.4.6-.7 0-.4-.3-.7-.6-.7-.4 0-.7.3-.7.7 0 .3.3.6.7.6zM34.4 31c.2 0 .3 0 .3-.2s-.1-.3-.3-.3c-.2 0-.3 0-.3.3 0 .1.1.3.3.3z" fill="#111"/><path d="M39.5 18.4l-4.4 4.5c-1.3 1.6-2.9 3-4.5 4.3-.2-.5-1.4-1.3-1.4-1.3l-4.5-3.4c-1-.8-1.9-1.7-2.7-2.6h-1.7c2.4 3.6 6 6.3 10.3 7.6.7-.1 2.8-1.6 4.4-2.9 1.8-1.5 3.5-3.3 5.1-5 .5-.6.8-1.2 1-1.8l-1.6.6zM22.3 24.3l-4.5-1.6a3.2 3.2 0 00-3.4.6 4.4 4.4 0 00-1.5 3.3l.4 1.3c0 .4-1 .4-1.7.4s-.8-1.3-.2-2.8c.4-1 .9-2.2 1.5-3.2A172 172 0 000 30.5c2.4-.2 4.7-.1 7 .2 4.6.4 4.4 4 4.4 4a33 33 0 014.8-1c1.8 0 2 2 2 2l.4 3.3c.7-.8 1.5-1.5 2.3-2 1-1 2.4-1.4 3.8-1.2l-2.4-11.5z" fill="#F06351"/><path d="M73.8 36.5c-.9-1.3-1.3-3-1.2-4.5v-6.5c-.1-1.6.3-3.2 1.2-4.6.8-1 2.1-1.5 4-1.5 2 0 3.3.4 4 1.3a5.9 5.9 0 011.1 4v1.5h-3.5v-1.7l-.1-1.3c0-.3-.2-.6-.5-.8a1.3 1.3 0 00-1-.3 1.2 1.2 0 00-1.2.6c-.3.6-.4 1.3-.3 2v8.2c0 .6 0 1.3.3 1.9a1.3 1.3 0 001.3.6 1.2 1.2 0 001.2-.6c.2-.6.3-1.3.2-2v-1.6H83v1.5c.1 1.4-.3 2.8-1 4-.8 1-2.1 1.4-4 1.4s-3.3-.5-4.1-1.6zM87.8 19.6h4L95.4 38H92l-.6-4h-2.8l-.7 4h-3.5l3.5-18.3zm3.1 12l-1-7.4-1.1 7.3h2.1zM98 22.4h-2.8v-2.8h9.2v2.8h-2.8v15.4H98V22.4z" fill="#111"/><path d="M111.7 19.6h7v2h-4.5v6h3.6v1.7h-3.6V36h4.5v1.8h-7V19.6zM120.7 19.6h1.8l5.1 12.1v-12h2.1v18.2h-1.6L123 25.4v12.4h-2l-.2-18.2zM132.5 19.6h7v2H135v6h3.7v1.7H135V36h4.5v1.8h-7V19.6zM141.6 19.6h3.6a6 6 0 014 1.2c.9.7 1.3 2 1.3 3.7 0 2.3-.7 3.7-2.2 4.2l2.6 9.1h-2.5l-2.3-8.5h-2v8.5h-2.5V19.6zm3.4 7.8c.9.1 1.7-.1 2.3-.6a3.1 3.1 0 00.8-2.4c0-.6-.1-1.2-.3-1.7a1.6 1.6 0 00-.9-1 4 4 0 00-1.7-.3H144v6h1zM154 36.5c-1-1.4-1.3-3-1.2-4.7v-6c0-1.2.1-2.4.4-3.5.3-.9.8-1.6 1.5-2.1a5 5 0 013-.7 4.5 4.5 0 013.5 1.2 6.1 6.1 0 011.1 4v.8H160v-.6c0-.7 0-1.4-.2-2 0-.5-.3-.8-.6-1.1-.5-.3-1-.4-1.5-.4-.6 0-1.1.2-1.6.5-.3.4-.6.8-.6 1.3a13 13 0 00-.2 2.2V32c0 1 .1 2.1.5 3a2.4 2.4 0 003.9 0c.4-1 .6-2.1.5-3.2v-1.3h-2.3v-1.8h4.6v9h-1.6l-.2-2a3.2 3.2 0 01-3.2 2.3 4 4 0 01-3.6-1.6zM167.7 31.4l-3.9-11.8h2.4l2.7 8.8 2.7-8.8h2.4l-3.9 11.8v6.4h-2.4v-6.4z" fill="#444"/></g><defs><clipPath id="clip0"><path fill="#fff" d="M0 0h174v51.7H0z"/></clipPath></defs></svg>
